<?xml version="1.0" encoding="UTF-8"?>
<svg id="Capa_2" data-name="Capa 2" xmlns="http://www.w3.org/2000/svg" xmlns:xlink="http://www.w3.org/1999/xlink" viewBox="0 0 179.59 239.57">
  <defs>
    <style>
      .cls-1 {
        fill: url(#Degradado_sin_nombre_119);
      }
    </style>
    <linearGradient id="Degradado_sin_nombre_119" data-name="Degradado sin nombre 119" x1="89.8" y1="0" x2="89.8" y2="239.57" gradientUnits="userSpaceOnUse">
      <stop offset="0" stop-color="#8cbdf7"/>
      <stop offset="1" stop-color="#fabeda"/>
    </linearGradient>
  </defs>
  <g id="CONTENIDO">
    <path class="cls-1" d="M169.79,75.44c-1.09-.77-2.29-1.39-3.53-1.88l-7.55-3.01-86.09-30.4c-2.13-.75-3.23-3.11-2.43-5.23l11.1-29.42c1.62-4.3-4.05-7.54-6.93-3.95l-25.13,31.35c-.59.74-1.43,1.23-2.35,1.42-15.7,3.25-28.26,11.43-36.56,23.94C2.02,70.76-1.44,87.08.55,104.2c1.15,9.87,4.44,19.09,9.79,27.4l43.21,62.66c3.05,4.73,4.61,10.04,5.27,15.69.42,3.57-1.65,11.75-3.39,16.18l-3.12,7.92c-1.18,2.98,1.43,6.08,4.57,5.44l8.34-1.71c17.48-3.59,34.53-15.46,44.5-30.98,8.38-13.06,11.25-27.86,8.06-41.67-1.23-5.35-7.05-15.35-14.4-26.49-1.5-2.28-.38-5.36,2.24-6.11l30.07-8.68c.63-.18,1.3-.2,1.95-.06,9.04,1.84,18.46.36,20.03.03,19.69-3.74,30.66-28.86,13.22-47.45-.27-.28-.66-.6-1.09-.9ZM95.15,197.44c-3.23,5.03-7.43,9.55-12.2,13.29-2.53,1.98-6.27.43-6.63-2.76v-.07c-.98-8.35-3.78-16.13-8.32-23.14l-43.18-62.62c-3.86-6.04-6.24-12.74-7.08-19.93-1.89-16.22,2.35-35.22,18.06-45.22,2.75-1.75,6.32.21,6.26,3.47-.05,2.83.07,5.86.44,9.06,1.28,11.02,5.32,21.61,11.67,30.63l.22.29c21.08,27.38,44.86,61.39,46.52,68.58,2.73,11.84-1.63,22-5.76,28.44ZM154.34,106.84c-1.34.34-7.22,1.61-14.8-.44-.1-.03-.21-.06-.31-.09h0c-1.57-.53-3.27-.57-4.87-.11l-41.81,12.07c-1.64.47-3.4-.14-4.4-1.52-8.11-11.22-15.79-21.31-19.95-26.72-4.64-6.63-7.59-14.42-8.53-22.52-.34-2.96-.4-5.72-.28-8.22.13-2.68,2.84-4.46,5.38-3.57l91.9,32.45c.07.02.14.05.21.08l.62.26c.49.2.95.5,1.32.88,7.24,7.47,1.7,14.94-3.96,17.27-.17.07-.35.13-.53.18Z"/>
  </g>
</svg>