<?xml version="1.0" standalone="no"?>
<!DOCTYPE svg PUBLIC "-//W3C//DTD SVG 20010904//EN"
 "http://www.w3.org/TR/2001/REC-SVG-20010904/DTD/svg10.dtd">
<svg version="1.0" xmlns="http://www.w3.org/2000/svg"
 width="1306.000000pt" height="482.000000pt" viewBox="0 0 1306.000000 482.000000"
 preserveAspectRatio="xMidYMid meet">
<metadata>
Created by potrace 1.16, written by Peter Selinger 2001-2019
</metadata>
<g transform="translate(0.000000,482.000000) scale(0.100000,-0.100000)"
fill="#132fc4" stroke="none">
<path d="M2187 3605 c-315 -60 -545 -320 -564 -640 -7 -121 14 -223 73 -345
l45 -95 437 -433 c496 -492 490 -487 627 -487 129 0 162 21 373 230 169 168
175 174 122 148 -47 -24 -67 -28 -141 -28 -138 0 -138 0 -600 454 -235 231
-408 410 -420 432 -64 127 31 280 174 280 32 0 69 -7 89 -17 18 -9 215 -197
438 -418 305 -302 417 -408 455 -426 42 -21 64 -25 145 -25 86 0 100 3 147 29
74 41 270 243 315 326 67 121 83 187 82 345 0 131 -2 145 -31 221 -57 150
-145 262 -271 345 -252 166 -577 154 -813 -30 l-63 -49 -63 48 c-158 122 -363
171 -556 135z m1205 -506 c47 -24 83 -72 98 -129 9 -38 8 -54 -7 -99 -32 -95
-35 -93 -188 59 -141 140 -143 144 -91 172 57 31 123 29 188 -3z"/>
<path d="M6250 3427 c-103 -55 -119 -195 -31 -270 67 -56 155 -56 222 0 88 75
72 215 -31 270 -55 29 -105 29 -160 0z"/>
<path d="M6748 3435 c-18 -10 -29 -27 -33 -48 -3 -17 -5 -306 -3 -642 3 -602
4 -611 26 -677 42 -126 138 -222 267 -269 52 -19 82 -22 220 -23 201 -1 270 8
301 39 22 22 24 32 24 128 0 156 5 152 -207 152 -160 0 -170 1 -210 24 -30 17
-50 39 -65 70 -22 43 -23 61 -26 289 l-4 242 185 0 c224 0 224 0 234 101 7 83
-4 174 -23 194 -13 12 -50 15 -205 15 l-189 0 0 184 c0 239 6 230 -152 234
-86 1 -119 -2 -140 -13z"/>
<path d="M7812 3440 c-12 -5 -27 -21 -32 -35 -6 -17 -10 -318 -10 -805 0 -751
1 -779 19 -801 18 -23 25 -24 146 -24 121 0 128 1 146 24 18 22 19 45 19 478
l0 456 128 -6 c80 -3 144 -11 173 -21 50 -18 102 -63 125 -108 25 -48 34 -179
34 -490 l0 -297 26 -20 c23 -18 41 -21 130 -21 117 0 149 10 164 53 16 47 13
693 -5 790 -35 198 -153 332 -345 392 -40 13 -105 19 -242 22 l-188 5 0 183
c0 238 6 229 -152 232 -62 2 -123 -2 -136 -7z"/>
<path d="M4690 3010 c-11 -11 -20 -29 -20 -41 0 -24 465 -1123 489 -1156 9
-12 26 -26 39 -32 29 -14 192 -14 226 -1 36 13 52 43 157 289 50 119 154 363
230 543 76 180 139 340 139 357 0 50 -27 61 -160 61 -130 0 -148 -7 -179 -68
-10 -20 -78 -179 -151 -352 -72 -173 -135 -318 -138 -322 -4 -4 -72 149 -152
340 -95 230 -153 356 -171 375 -27 27 -29 27 -158 27 -118 0 -133 -2 -151 -20z"/>
<path d="M6203 3018 c-12 -6 -27 -24 -32 -41 -15 -41 -15 -1113 -1 -1154 15
-43 47 -53 160 -53 119 0 146 10 160 59 6 22 10 246 10 571 0 325 -4 549 -10
571 -6 23 -19 40 -36 47 -31 15 -221 15 -251 0z"/>
<path d="M9213 3019 c-18 -18 -18 -250 -1 -267 9 -9 86 -12 283 -12 289 0 332
-5 395 -50 27 -19 70 -85 70 -107 0 -4 -105 -7 -233 -5 -184 3 -247 0 -300
-12 -221 -51 -340 -212 -324 -438 12 -177 124 -300 313 -344 54 -12 123 -14
363 -12 296 3 296 3 352 29 68 32 117 80 150 145 24 48 24 52 24 339 0 245 -3
300 -17 353 -52 187 -153 295 -335 359 -78 27 -79 27 -403 31 -253 3 -328 1
-337 -9z m703 -744 c83 -35 86 -173 3 -215 -34 -18 -59 -20 -214 -20 -154 0
-181 2 -213 19 -43 22 -62 55 -62 107 0 49 26 93 63 109 47 21 374 21 423 0z"/>
<path d="M10844 3015 c-143 -31 -259 -116 -310 -228 -26 -56 -29 -72 -29 -167
1 -94 3 -110 27 -156 35 -67 103 -126 182 -158 36 -14 130 -39 211 -55 81 -16
158 -37 171 -46 47 -31 20 -89 -55 -114 -52 -17 -206 -13 -332 9 -143 25 -164
25 -189 0 -17 -17 -20 -33 -20 -119 0 -116 12 -140 86 -165 138 -47 451 -58
574 -21 200 62 300 187 300 381 0 216 -118 314 -463 385 -122 25 -160 46 -155
88 2 19 14 32 48 49 54 27 169 29 325 7 128 -19 122 -19 150 10 23 22 25 32
25 115 0 50 -5 100 -11 112 -36 67 -359 111 -535 73z"/>
</g>
</svg>
